<svg width="28" height="28" viewBox="0 0 28 28" xmlns="http://www.w3.org/2000/svg" xmlns:xlink="http://www.w3.org/1999/xlink"><title>coooooooies</title><defs><path d="M20.512 10.324A3.498 3.498 0 0 0 24 11.964V12c0 6.627-5.373 12-12 12S0 18.627 0 12 5.373 0 12 0h.035a3.498 3.498 0 0 0 1.64 3.488 5 5 0 0 0 6.836 6.836z" id="a"/><circle id="c" cx="2" cy="2" r="2"/><circle id="e" cx="1.5" cy="1.5" r="1.5"/><circle id="g" cx="1" cy="1" r="1"/><circle id="i" cx="1" cy="1" r="1"/><circle id="k" cx="1" cy="1" r="1"/><circle id="m" cx="1.5" cy="1.5" r="1.5"/></defs><g fill="none" fill-rule="evenodd"><path d="M0 0h28v28H0z"/><g transform="translate(2 2)"><mask id="b" fill="#fff"><use xlink:href="#a"/></mask><use fill="#D17715" xlink:href="#a"/><path d="M21.512 8.824A3.498 3.498 0 0 0 25 10.464v.036c0 6.627-5.373 12-12 12s-12-5.373-12-12 5.373-12 12-12h.035a3.498 3.498 0 0 0 1.64 3.488 5 5 0 0 0 6.836 6.836z" fill="#F7B259" mask="url(#b)"/></g><g transform="translate(7 10)"><mask id="d" fill="#fff"><use xlink:href="#c"/></mask><use fill="#482510" xlink:href="#c"/><circle fill="#6A3614" mask="url(#d)" cx="2.3" cy="1.5" r="2"/></g><g transform="translate(16 18)"><mask id="f" fill="#fff"><use xlink:href="#e"/></mask><use fill="#482510" xlink:href="#e"/><circle fill="#6A3614" mask="url(#f)" cx="1.8" cy="1" r="1.5"/></g><g transform="translate(10 17)"><mask id="h" fill="#fff"><use xlink:href="#g"/></mask><use fill="#482510" xlink:href="#g"/><circle fill="#6A3614" mask="url(#h)" cx="1.3" cy=".5" r="1"/></g><g transform="translate(19 7)"><mask id="j" fill="#fff"><use xlink:href="#i"/></mask><use fill="#D17715" xlink:href="#i"/><circle fill="#F7B259" mask="url(#j)" cx="1.2" cy=".6" r="1"/></g><g transform="translate(24 8)"><mask id="l" fill="#fff"><use xlink:href="#k"/></mask><use fill="#D17715" xlink:href="#k"/><circle fill="#F7B259" mask="url(#l)" cx="1.2" cy=".6" r="1"/></g><g transform="translate(19 1)"><mask id="n" fill="#fff"><use xlink:href="#m"/></mask><use fill="#D17715" xlink:href="#m"/><circle fill="#F7B259" mask="url(#n)" cx="1.8" cy="1.1" r="1.5"/></g></g></svg>